<?xml version="1.0" encoding="UTF-8" standalone="no"?><!-- Generator: Gravit.io --><svg xmlns="http://www.w3.org/2000/svg" xmlns:xlink="http://www.w3.org/1999/xlink" style="isolation:isolate" viewBox="0 0 70 70" width="70pt" height="70pt"><defs><clipPath id="_clipPath_ANqPBDlricSNp4XlRf4h0M7ctIMbIvTY"><rect width="70" height="70"/></clipPath></defs><g clip-path="url(#_clipPath_ANqPBDlricSNp4XlRf4h0M7ctIMbIvTY)"><path d=" M 51.883 46.795 C 60.747 35.423 59.951 18.943 49.496 8.487 C 38.179 -2.829 19.804 -2.829 8.487 8.487 C -2.829 19.804 -2.829 38.179 8.487 49.496 L 8.487 49.496 L 8.487 49.496 C 18.943 59.951 35.423 60.747 46.795 51.883 L 48.214 55.049 L 48.214 55.049 L 48.214 55.049 L 63.165 70 L 70 63.165 L 55.049 48.214 L 55.049 48.214 L 51.883 46.795 Z  M 15.322 42.661 C 7.778 35.117 7.778 22.867 15.322 15.322 C 22.867 7.778 35.117 7.778 42.661 15.322 C 50.205 22.867 50.205 35.117 42.661 42.661 L 42.661 42.661 C 35.117 50.205 22.867 50.205 15.322 42.661 L 15.322 42.661 L 15.322 42.661 Z " fill-rule="evenodd" fill="rgb(56,55,54)"/></g></svg>
