<?xml version="1.0" encoding="UTF-8" standalone="no"?><!-- Generator: Gravit.io --><svg xmlns="http://www.w3.org/2000/svg" xmlns:xlink="http://www.w3.org/1999/xlink" style="isolation:isolate" viewBox="0 0 100 100" width="100pt" height="100pt"><defs><clipPath id="_clipPath_jVQ2GOcScyDHagoDGvRE63ZHiu4eMY5o"><rect width="100" height="100"/></clipPath></defs><g clip-path="url(#_clipPath_jVQ2GOcScyDHagoDGvRE63ZHiu4eMY5o)"><path d=" M 85.71 0 L 22.59 0 C 14.719 0.011 8.341 6.389 8.33 14.26 L 8.33 70.17 L 0 70.17 L 0 85.74 C 0.011 93.611 6.389 99.989 14.26 100 L 63.13 100 C 71.018 99.989 77.409 93.598 77.42 85.71 L 77.42 29.83 L 100 29.83 L 100 14.29 C 99.989 6.402 93.598 0.011 85.71 0 L 85.71 0 Z  M 14.26 94 C 9.703 93.989 6.011 90.297 6 85.74 L 6 76.17 L 48.83 76.17 L 48.83 85.71 C 48.829 88.683 49.759 91.582 51.49 94 L 14.26 94 Z  M 63.13 94 C 58.55 94 54.836 90.29 54.83 85.71 L 54.83 70.17 L 14.33 70.17 L 14.33 14.26 C 14.341 9.703 18.033 6.011 22.59 6 L 74.09 6 C 72.351 8.414 71.417 11.315 71.42 14.29 L 71.42 85.71 C 71.414 90.286 67.706 93.994 63.13 94 L 63.13 94 Z  M 94 23.83 L 77.42 23.83 L 77.42 14.29 C 77.42 9.712 81.132 6 85.71 6 C 90.288 6 94 9.712 94 14.29 L 94 23.83 Z " fill="rgb(255,255,255)"/><circle vector-effect="non-scaling-stroke" cx="42.88" cy="26.67" r="3" fill="rgb(255,255,255)"/><rect x="25.38" y="38.79" width="35" height="6" transform="matrix(1,0,0,1,0,0)" fill="rgb(255,255,255)"/><rect x="30.38" y="52.79" width="25" height="6" transform="matrix(1,0,0,1,0,0)" fill="rgb(255,255,255)"/></g></svg>